<?xml version="1.0" encoding="UTF-8"?>
<svg version="1.1" xmlns="http://www.w3.org/2000/svg" width="1536" height="400">
<path d="M0 0 C506.88 0 1013.76 0 1536 0 C1536 132 1536 264 1536 400 C1029.12 400 522.24 400 0 400 C0 268 0 136 0 0 Z " fill="#FEFEFE" transform="translate(0,0)"/>
<path d="M0 0 C1.37154805 -0.0026225 2.74309312 -0.00788707 4.11462235 -0.015535 C7.85042302 -0.02884482 11.5851763 -0.00510207 15.3208437 0.02513337 C19.3615678 0.0511928 23.40223911 0.04226548 27.44302368 0.03771973 C34.43291825 0.03458293 41.42247519 0.05330968 48.41228485 0.08714676 C58.51815147 0.1360364 68.62385585 0.15154841 78.72982791 0.15907471 C95.12842901 0.17218658 111.5268504 0.21206205 127.925354 0.26889038 C143.84917317 0.32401612 159.77294317 0.36639254 175.69683838 0.39193726 C176.68939841 0.39354524 177.68195844 0.39515322 178.70459604 0.39680994 C186.46777449 0.40928744 194.23095401 0.42102864 201.99413395 0.43253732 C240.00587748 0.48907685 278.01717085 0.60980101 316.02886963 0.7215271 C316.02886963 97.0815271 316.02886963 193.4415271 316.02886963 292.7215271 C312.06886963 292.7215271 308.10886963 292.7215271 304.02886963 292.7215271 C304.02886963 303.9415271 304.02886963 315.1615271 304.02886963 326.7215271 C307.98886963 326.7215271 311.94886963 326.7215271 316.02886963 326.7215271 C316.02886963 330.6815271 316.02886963 334.6415271 316.02886963 338.7215271 C301.83886963 338.7215271 287.64886963 338.7215271 273.02886963 338.7215271 C273.02886963 334.7615271 273.02886963 330.8015271 273.02886963 326.7215271 C279.62886963 326.7215271 286.22886963 326.7215271 293.02886963 326.7215271 C293.02886963 322.7615271 293.02886963 318.8015271 293.02886963 314.7215271 C195.67886963 314.7215271 98.32886963 314.7215271 -1.97113037 314.7215271 C-1.97113037 311.0915271 -1.97113037 307.4615271 -1.97113037 303.7215271 C95.37886963 303.7215271 192.72886963 303.7215271 293.02886963 303.7215271 C293.02886963 300.0915271 293.02886963 296.4615271 293.02886963 292.7215271 C254.13134334 292.78060817 215.23387612 292.85490751 176.33642157 292.95051338 C171.7463557 292.96178182 167.15628952 292.97292023 162.56622314 292.98397827 C161.19549829 292.9872838 161.19549829 292.9872838 159.79708203 292.9906561 C144.99212314 293.02604825 130.1871643 293.05090155 115.38217876 293.07187412 C100.19588405 293.0936209 85.00964433 293.12666062 69.82339638 293.17022866 C60.44933566 293.19676475 51.07534349 293.21444569 41.70124706 293.22087314 C35.27692732 293.22612104 28.85269391 293.24231785 22.4284204 293.26719276 C18.71949583 293.28122832 15.01072587 293.29037094 11.30177307 293.28653526 C7.28337891 293.2825055 3.26542513 293.30149774 -0.75291443 293.32279968 C-1.9289804 293.31795211 -3.10504637 293.31310453 -4.31675071 293.30811006 C-5.39262499 293.3175666 -6.46849928 293.32702314 -7.57697582 293.33676624 C-8.50463259 293.33866484 -9.43228936 293.34056345 -10.38805693 293.34251958 C-13.48122162 293.79637144 -15.36658125 295.04127496 -17.97113037 296.7215271 C-18.63113037 296.7215271 -19.29113037 296.7215271 -19.97113037 296.7215271 C-20.28050537 297.5052771 -20.58988037 298.2890271 -20.90863037 299.0965271 C-21.97113037 301.7215271 -21.97113037 301.7215271 -22.97113037 303.7215271 C-23.73438055 310.56575413 -23.1622596 315.20688338 -18.97113037 320.7215271 C-14.47685685 324.20688207 -11.01008925 325.84197224 -5.35406208 325.8601923 C-4.40060534 325.86566674 -3.4471486 325.87114119 -2.46479923 325.87678152 C-0.89040011 325.87824868 -0.89040011 325.87824868 0.71580505 325.87974548 C1.82909457 325.88468346 2.94238409 325.88962144 4.08940965 325.89470905 C7.83900348 325.91012993 11.58858013 325.9184571 15.3381958 325.92684937 C18.01840975 325.93642428 20.69861958 325.94639053 23.37882996 325.95684814 C29.15899628 325.9786178 34.93916492 325.9967605 40.71935081 326.01245308 C49.07657089 326.03514725 57.4337656 326.0632907 65.79096416 326.09277236 C79.34934007 326.14045382 92.90772635 326.18371651 106.46612549 326.22421265 C119.63833422 326.26356475 132.81053373 326.30499029 145.98272705 326.34921265 C146.79440168 326.35193692 147.6060763 326.35466119 148.44234713 326.35746802 C152.51420272 326.37114745 156.58605818 326.38486773 160.65791357 326.39860833 C194.44821327 326.51258182 228.23853232 326.61931583 262.02886963 326.7215271 C262.02886963 330.6815271 262.02886963 334.6415271 262.02886963 338.7215271 C227.14871183 338.81280527 192.26858475 338.88358013 157.38833326 338.92578842 C153.26908152 338.93079116 149.14983001 338.93596846 145.03057861 338.94125366 C144.21052034 338.9423029 143.39046208 338.94335215 142.54555356 338.94443318 C129.27258472 338.96183171 115.99968528 338.99336635 102.72675759 339.03013828 C89.10441898 339.06756309 75.48211667 339.08976621 61.85972875 339.09788108 C53.45602418 339.10336567 45.05251577 339.12067938 36.64887159 339.15319297 C30.88378915 339.17435988 25.11880791 339.18072223 19.35368944 339.17553261 C16.02890131 339.17297412 12.70473129 339.17905291 9.3799572 339.198349 C5.77010695 339.21827176 2.16109368 339.21345683 -1.44877625 339.20254517 C-2.49257145 339.21419653 -3.53636666 339.2258479 -4.61179203 339.23785233 C-14.06938039 339.16066648 -21.2303707 336.20874612 -28.17816162 329.78793335 C-33.10689253 324.10754413 -36.0980886 316.98916063 -36.0941782 309.46554947 C-36.09616925 308.61808694 -36.0981603 307.77062441 -36.10021168 306.8974812 C-36.09729884 305.97141403 -36.094386 305.04534686 -36.09138489 304.09121704 C-36.09223931 303.10366322 -36.09309374 302.1161094 -36.09397405 301.09862971 C-36.09562473 297.78052773 -36.09011417 294.46247601 -36.08465576 291.14437866 C-36.08437378 288.76943462 -36.08453185 286.3944905 -36.08509827 284.01954651 C-36.08535592 278.23416083 -36.08101454 272.44879169 -36.07466061 266.6634098 C-36.06751434 259.93170332 -36.06601564 253.1999992 -36.06487244 246.46828946 C-36.06268374 234.46334305 -36.05602856 222.45840342 -36.04656982 210.45346069 C-36.03739101 198.79167719 -36.03031247 187.12989552 -36.02606201 175.46810913 C-36.02579929 174.74929409 -36.02553656 174.03047905 -36.02526588 173.28988174 C-36.02396084 169.68380311 -36.02269714 166.07772448 -36.02145398 162.47164583 C-36.01108702 132.55493483 -35.9933993 102.63823176 -35.97113037 72.7215271 C-32.34113037 72.7215271 -28.71113037 72.7215271 -24.97113037 72.7215271 C-24.64113037 142.6815271 -24.31113037 212.6415271 -23.97113037 284.7215271 C-22.32113037 283.7315271 -20.67113037 282.7415271 -18.97113037 281.7215271 C-14.97113037 280.7215271 -14.97113037 280.7215271 -1.97113037 280.7215271 C-1.97113037 192.2815271 -1.97113037 103.8415271 -1.97113037 12.7215271 C-12.38474057 13.75135148 -12.38474057 13.75135148 -19.97113037 18.7215271 C-25.15614596 26.42954626 -24.63661083 35.3809747 -24.72113037 44.2840271 C-24.74933812 45.78471186 -24.77927214 47.28536521 -24.81097412 48.78598022 C-24.88426595 52.43101542 -24.93418704 56.07592104 -24.97113037 59.7215271 C-28.60113037 59.7215271 -32.23113037 59.7215271 -35.97113037 59.7215271 C-36.07091909 54.92015465 -36.14302654 50.11940189 -36.19085693 45.31723022 C-36.21082117 43.68789132 -36.23800267 42.05862265 -36.27288818 40.42953491 C-36.63686781 22.9799234 -36.63686781 22.9799234 -31.97113037 14.7215271 C-31.58666748 14.01238159 -31.20220459 13.30323608 -30.80609131 12.57260132 C-23.88977624 1.6871208 -11.95419909 -0.16726523 0 0 Z " fill="#FBEF6E" transform="translate(158.97113037109375,33.278472900390625)"/>
<path d="M0 0 C78.54 0 157.08 0 238 0 C238 65.01 238 130.02 238 197 C205.969375 197.165 173.93875 197.33 140.9375 197.5 C125.8862854 197.57831055 125.8862854 197.57831055 110.53100586 197.65820312 C98.07531738 197.72167969 98.07531738 197.72167969 92.20509338 197.75134277 C88.19097127 197.77169347 84.1768524 197.79258547 80.16273499 197.81384277 C74.98434277 197.84124629 69.80594616 197.86762764 64.62754548 197.89337826 C62.76340883 197.90280223 60.89927371 197.9125357 59.03514087 197.92268467 C39.35649818 198.02941358 19.67945007 198 0 198 C0 132.66 0 67.32 0 0 Z " fill="#020202" transform="translate(196,82)"/>
<path d="M0 0 C1.37154805 -0.0026225 2.74309312 -0.00788707 4.11462235 -0.015535 C7.85042302 -0.02884482 11.5851763 -0.00510207 15.3208437 0.02513337 C19.3615678 0.0511928 23.40223911 0.04226548 27.44302368 0.03771973 C34.43291825 0.03458293 41.42247519 0.05330968 48.41228485 0.08714676 C58.51815147 0.1360364 68.62385585 0.15154841 78.72982791 0.15907471 C95.12842901 0.17218658 111.5268504 0.21206205 127.925354 0.26889038 C143.84917317 0.32401612 159.77294317 0.36639254 175.69683838 0.39193726 C176.68939841 0.39354524 177.68195844 0.39515322 178.70459604 0.39680994 C186.46777449 0.40928744 194.23095401 0.42102864 201.99413395 0.43253732 C240.00587748 0.48907685 278.01717085 0.60980101 316.02886963 0.7215271 C316.02886963 97.0815271 316.02886963 193.4415271 316.02886963 292.7215271 C312.06886963 292.7215271 308.10886963 292.7215271 304.02886963 292.7215271 C304.02886963 303.9415271 304.02886963 315.1615271 304.02886963 326.7215271 C307.98886963 326.7215271 311.94886963 326.7215271 316.02886963 326.7215271 C316.02886963 330.6815271 316.02886963 334.6415271 316.02886963 338.7215271 C301.83886963 338.7215271 287.64886963 338.7215271 273.02886963 338.7215271 C273.02886963 334.7615271 273.02886963 330.8015271 273.02886963 326.7215271 C279.62886963 326.7215271 286.22886963 326.7215271 293.02886963 326.7215271 C293.02886963 322.7615271 293.02886963 318.8015271 293.02886963 314.7215271 C195.67886963 314.7215271 98.32886963 314.7215271 -1.97113037 314.7215271 C-1.97113037 311.0915271 -1.97113037 307.4615271 -1.97113037 303.7215271 C95.37886963 303.7215271 192.72886963 303.7215271 293.02886963 303.7215271 C293.02886963 300.0915271 293.02886963 296.4615271 293.02886963 292.7215271 C254.13134334 292.78060817 215.23387612 292.85490751 176.33642157 292.95051338 C171.7463557 292.96178182 167.15628952 292.97292023 162.56622314 292.98397827 C161.19549829 292.9872838 161.19549829 292.9872838 159.79708203 292.9906561 C144.99212314 293.02604825 130.1871643 293.05090155 115.38217876 293.07187412 C100.19588405 293.0936209 85.00964433 293.12666062 69.82339638 293.17022866 C60.44933566 293.19676475 51.07534349 293.21444569 41.70124706 293.22087314 C35.27692732 293.22612104 28.85269391 293.24231785 22.4284204 293.26719276 C18.71949583 293.28122832 15.01072587 293.29037094 11.30177307 293.28653526 C7.28337891 293.2825055 3.26542513 293.30149774 -0.75291443 293.32279968 C-1.9289804 293.31795211 -3.10504637 293.31310453 -4.31675071 293.30811006 C-5.39262499 293.3175666 -6.46849928 293.32702314 -7.57697582 293.33676624 C-8.50463259 293.33866484 -9.43228936 293.34056345 -10.38805693 293.34251958 C-13.48122162 293.79637144 -15.36658125 295.04127496 -17.97113037 296.7215271 C-18.63113037 296.7215271 -19.29113037 296.7215271 -19.97113037 296.7215271 C-20.28050537 297.5052771 -20.58988037 298.2890271 -20.90863037 299.0965271 C-21.97113037 301.7215271 -21.97113037 301.7215271 -22.97113037 303.7215271 C-23.73438055 310.56575413 -23.1622596 315.20688338 -18.97113037 320.7215271 C-14.47685685 324.20688207 -11.01008925 325.84197224 -5.35406208 325.8601923 C-4.40060534 325.86566674 -3.4471486 325.87114119 -2.46479923 325.87678152 C-0.89040011 325.87824868 -0.89040011 325.87824868 0.71580505 325.87974548 C1.82909457 325.88468346 2.94238409 325.88962144 4.08940965 325.89470905 C7.83900348 325.91012993 11.58858013 325.9184571 15.3381958 325.92684937 C18.01840975 325.93642428 20.69861958 325.94639053 23.37882996 325.95684814 C29.15899628 325.9786178 34.93916492 325.9967605 40.71935081 326.01245308 C49.07657089 326.03514725 57.4337656 326.0632907 65.79096416 326.09277236 C79.34934007 326.14045382 92.90772635 326.18371651 106.46612549 326.22421265 C119.63833422 326.26356475 132.81053373 326.30499029 145.98272705 326.34921265 C146.79440168 326.35193692 147.6060763 326.35466119 148.44234713 326.35746802 C152.51420272 326.37114745 156.58605818 326.38486773 160.65791357 326.39860833 C194.44821327 326.51258182 228.23853232 326.61931583 262.02886963 326.7215271 C262.02886963 330.6815271 262.02886963 334.6415271 262.02886963 338.7215271 C227.14871183 338.81280527 192.26858475 338.88358013 157.38833326 338.92578842 C153.26908152 338.93079116 149.14983001 338.93596846 145.03057861 338.94125366 C144.21052034 338.9423029 143.39046208 338.94335215 142.54555356 338.94443318 C129.27258472 338.96183171 115.99968528 338.99336635 102.72675759 339.03013828 C89.10441898 339.06756309 75.48211667 339.08976621 61.85972875 339.09788108 C53.45602418 339.10336567 45.05251577 339.12067938 36.64887159 339.15319297 C30.88378915 339.17435988 25.11880791 339.18072223 19.35368944 339.17553261 C16.02890131 339.17297412 12.70473129 339.17905291 9.3799572 339.198349 C5.77010695 339.21827176 2.16109368 339.21345683 -1.44877625 339.20254517 C-2.49257145 339.21419653 -3.53636666 339.2258479 -4.61179203 339.23785233 C-14.06938039 339.16066648 -21.2303707 336.20874612 -28.17816162 329.78793335 C-33.10689253 324.10754413 -36.0980886 316.98916063 -36.0941782 309.46554947 C-36.09616925 308.61808694 -36.0981603 307.77062441 -36.10021168 306.8974812 C-36.09729884 305.97141403 -36.094386 305.04534686 -36.09138489 304.09121704 C-36.09223931 303.10366322 -36.09309374 302.1161094 -36.09397405 301.09862971 C-36.09562473 297.78052773 -36.09011417 294.46247601 -36.08465576 291.14437866 C-36.08437378 288.76943462 -36.08453185 286.3944905 -36.08509827 284.01954651 C-36.08535592 278.23416083 -36.08101454 272.44879169 -36.07466061 266.6634098 C-36.06751434 259.93170332 -36.06601564 253.1999992 -36.06487244 246.46828946 C-36.06268374 234.46334305 -36.05602856 222.45840342 -36.04656982 210.45346069 C-36.03739101 198.79167719 -36.03031247 187.12989552 -36.02606201 175.46810913 C-36.02579929 174.74929409 -36.02553656 174.03047905 -36.02526588 173.28988174 C-36.02396084 169.68380311 -36.02269714 166.07772448 -36.02145398 162.47164583 C-36.01108702 132.55493483 -35.9933993 102.63823176 -35.97113037 72.7215271 C-32.34113037 72.7215271 -28.71113037 72.7215271 -24.97113037 72.7215271 C-24.64113037 142.6815271 -24.31113037 212.6415271 -23.97113037 284.7215271 C-22.32113037 283.7315271 -20.67113037 282.7415271 -18.97113037 281.7215271 C-14.97113037 280.7215271 -14.97113037 280.7215271 -1.97113037 280.7215271 C-1.97113037 192.2815271 -1.97113037 103.8415271 -1.97113037 12.7215271 C-12.38474057 13.75135148 -12.38474057 13.75135148 -19.97113037 18.7215271 C-25.15614596 26.42954626 -24.63661083 35.3809747 -24.72113037 44.2840271 C-24.74933812 45.78471186 -24.77927214 47.28536521 -24.81097412 48.78598022 C-24.88426595 52.43101542 -24.93418704 56.07592104 -24.97113037 59.7215271 C-28.60113037 59.7215271 -32.23113037 59.7215271 -35.97113037 59.7215271 C-36.07091909 54.92015465 -36.14302654 50.11940189 -36.19085693 45.31723022 C-36.21082117 43.68789132 -36.23800267 42.05862265 -36.27288818 40.42953491 C-36.63686781 22.9799234 -36.63686781 22.9799234 -31.97113037 14.7215271 C-31.58666748 14.01238159 -31.20220459 13.30323608 -30.80609131 12.57260132 C-23.88977624 1.6871208 -11.95419909 -0.16726523 0 0 Z M9.02886963 12.7215271 C9.02886963 101.1615271 9.02886963 189.6015271 9.02886963 280.7215271 C106.70886963 280.7215271 204.38886963 280.7215271 305.02886963 280.7215271 C305.02886963 192.2815271 305.02886963 103.8415271 305.02886963 12.7215271 C207.34886963 12.7215271 109.66886963 12.7215271 9.02886963 12.7215271 Z " fill="#010102" transform="translate(158.97113037109375,33.278472900390625)"/>
<path d="M0 0 C41.25 0 82.5 0 125 0 C125 39.6 125 79.2 125 120 C108.17 120 91.34 120 74 120 C75.71980259 115.70049351 77.69417928 112.28236046 80.25 108.5 C89.22419567 94.82383138 96.70249325 79.09905395 93.49609375 62.37109375 C90.87723271 52.569071 85.29675273 43.8135263 76.50390625 38.48828125 C68.52399625 34.35011098 60.31732845 32.3325302 51.41015625 34.68359375 C42.30930728 38.06310777 34.84319068 43.47426493 30 52 C24.08615809 65.13166759 25.13990919 77.71454731 30 91 C33.88841185 99.97934375 38.8853592 108.41533881 44.78515625 116.21484375 C46 118 46 118 46 120 C30.82 120 15.64 120 0 120 C0 80.4 0 40.8 0 0 Z " fill="#7CF4A7" transform="translate(298,93)"/>
<path d="M0 0 C9.9 0 19.8 0 30 0 C32.10580959 6.14527499 34.21039826 12.29095666 36.3125 18.4375 C36.62823975 19.36071045 36.94397949 20.2839209 37.26928711 21.23510742 C41.56630453 33.80592568 45.81669774 46.39090344 50 59 C54.24100704 71.77425746 54.24100704 71.77425746 58.625 84.5 C58.86089844 85.17675781 59.09679687 85.85351562 59.33984375 86.55078125 C60.26143243 89.51125309 60.26143243 89.51125309 62 92 C65.00886162 83.10561909 68.0172103 74.21106488 71.02494907 65.31630421 C72.42239852 61.18368862 73.82000809 57.05112734 75.21801758 52.91870117 C81.18138819 35.290999 87.13546921 17.66090405 93 0 C102.57 0 112.14 0 122 0 C122 41.58 122 83.16 122 126 C114.74 126 107.48 126 100 126 C99.67 99.27 99.34 72.54 99 45 C89.58618626 71.89661069 80.21898952 98.71780137 72 126 C65.4 126 58.8 126 52 126 C48.91018545 118.56023916 46.29083943 111.0204134 43.7953186 103.365448 C37.28373762 83.42278628 30.1410552 63.72628118 23 44 C22.67 71.06 22.34 98.12 22 126 C14.74 126 7.48 126 0 126 C0 84.42 0 42.84 0 0 Z " fill="#050505" transform="translate(542,123)"/>
<path d="M0 0 C10.97710507 7.79290666 16.38083683 18.00327637 19 31 C19.43989682 35.23894436 19.52467742 39.4277973 19.5 43.6875 C19.49500488 44.82509766 19.49000977 45.96269531 19.48486328 47.13476562 C19.18969956 61.47361553 15.48997262 76.07977581 4.8125 86.375 C-3.66768218 92.89251993 -13.58168975 94.2082774 -24 93 C-30.92905383 91.17818082 -34.37222846 87.82380417 -40 83 C-40.33 98.18 -40.66 113.36 -41 129 C-48.26 129 -55.52 129 -63 129 C-63 85.77 -63 42.54 -63 -2 C-55.74 -2 -48.48 -2 -41 -2 C-40.67 1.63 -40.34 5.26 -40 9 C-39.154375 7.9275 -38.30875 6.855 -37.4375 5.75 C-28.649548 -4.51299832 -11.75608783 -6.67814063 0 0 Z " fill="#080808" transform="translate(844,157)"/>
<path d="M0 0 C19.8 0 39.6 0 60 0 C60 39.6 60 79.2 60 120 C40.2 120 20.4 120 0 120 C0 80.4 0 40.8 0 0 Z " fill="#4CABFE" transform="translate(207,93)"/>
<path d="M0 0 C11.10878732 6.94729114 17.77547115 16.47265606 21.3125 29.0625 C24.48831059 45.84892739 21.79357881 62.4691472 13 77 C6.89445039 84.9894692 -2.09739037 90.37457165 -12 92 C-24.88988271 93.18261545 -36.55556982 92.29151049 -47.3125 84.4375 C-56.84462244 76.12940613 -62.13113711 64.98526894 -63.22314453 52.43554688 C-64.0973615 36.92436183 -62.81334919 22.72906713 -53 10 C-39.45573905 -4.49914391 -18.03922231 -9.04621768 0 0 Z " fill="#060606" transform="translate(1112,158)"/>
<path d="M0 0 C0 88.44 0 176.88 0 268 C-4.29 268.33 -8.58 268.66 -13 269 C-16.54373648 270.13399567 -19.69038891 271.34519445 -23 273 C-23 202.71 -23 132.42 -23 60 C-24.65 60 -26.3 60 -28 60 C-28 55.71 -28 51.42 -28 47 C-26.35 47 -24.7 47 -23 47 C-23.02618408 46.08299316 -23.05236816 45.16598633 -23.0793457 44.22119141 C-23.16527579 40.77311066 -23.22758531 37.32619005 -23.2746582 33.87744141 C-23.29958838 32.39353321 -23.33354625 30.90974505 -23.37719727 29.42626953 C-23.63396347 20.46663928 -23.62629941 12.51261897 -18 5 C-12.43743371 -0.19984737 -7.67055726 0 0 0 Z " fill="#4DA9F6" transform="translate(157,46)"/>
<path d="M0 0 C0.99 1.485 0.99 1.485 2 3 C0.22007744 6.00711829 -1.57582226 9.00436906 -3.375 12 C-3.88289062 12.85851562 -4.39078125 13.71703125 -4.9140625 14.6015625 C-5.40390625 15.41367188 -5.89375 16.22578125 -6.3984375 17.0625 C-7.07398682 18.19365234 -7.07398682 18.19365234 -7.76318359 19.34765625 C-8.17133301 19.89292969 -8.57948242 20.43820313 -9 21 C-9.66 21 -10.32 21 -11 21 C-11 20.34 -11 19.68 -11 19 C-11.84111328 18.58234375 -11.84111328 18.58234375 -12.69921875 18.15625 C-14.24979798 17.37701154 -15.79403023 16.58502943 -17.33203125 15.78125 C-26.19457729 11.20343095 -35.36471123 7.6805773 -45.37890625 10.72265625 C-48.49757804 12.14127859 -50.6475047 13.62547375 -53 16.125 C-54.47344016 20.36114047 -54.87644408 24.58327394 -54 29 C-48.58465238 37.42662787 -38.01467777 39.07429905 -28.875 41.5 C-17.00816944 44.67635703 -5.84775032 49.06639181 0.859375 60.04296875 C6.15265256 70.39006607 7.75463326 80.74821045 5.31640625 92.21484375 C1.96009187 102.14452073 -3.63429357 109.20362307 -13 114 C-26.51876793 120.1483662 -42.93895519 119.94939315 -56.89453125 115.25390625 C-66.47733513 111.38462317 -73.61220329 106.21151523 -81 99 C-79.18633597 94.87235084 -76.50853382 91.37940795 -73.875 87.75 C-73.40707031 87.1003125 -72.93914063 86.450625 -72.45703125 85.78125 C-71.30725718 84.18564517 -70.15397434 82.59256975 -69 81 C-65.68194078 82.4474755 -63.51551934 84.29230539 -60.9375 86.8125 C-53.09941843 93.9380287 -43.88696665 97.38643039 -33.33984375 97.2109375 C-27.92652427 96.72292539 -24.19881005 94.97403316 -20 91.5625 C-17.1631547 87.71249567 -17.30080149 83.46406338 -17.53515625 78.83984375 C-18.04985 75.6954542 -18.87153524 73.44674908 -21.23828125 71.22265625 C-28.29570134 66.32471282 -36.31990539 64.29239063 -44.5 62.0625 C-56.0289413 58.89178854 -66.09837528 55.36183984 -73 45 C-77.96863062 35.77688445 -79.67010933 26.36756801 -77.31640625 15.984375 C-73.57318875 4.86344665 -66.72675858 -2.86456844 -56.22265625 -8.10546875 C-36.98513298 -15.84781116 -17.07556447 -9.99938604 0 0 Z " fill="#070707" transform="translate(964,132)"/>
<path d="M0 0 C8.09772385 6.31981031 10.80316963 14.14494816 12.0874939 24.06874084 C13.12659251 32.83416197 13.20642537 41.64888275 13.3671875 50.46484375 C13.40548966 52.22723023 13.44454782 53.98960045 13.484375 55.75195312 C13.57899824 60.01028017 13.6634954 64.26869375 13.7421875 68.52734375 C15.7221875 69.18734375 17.7021875 69.84734375 19.7421875 70.52734375 C19.7421875 76.79734375 19.7421875 83.06734375 19.7421875 89.52734375 C1.69064314 90.00658829 1.69064314 90.00658829 -4 84.9921875 C-5.47272932 83.55678542 -6.87276091 82.04752232 -8.2578125 80.52734375 C-8.96744141 81.23310547 -8.96744141 81.23310547 -9.69140625 81.953125 C-18.05199406 89.82478955 -25.20396764 91.08962737 -36.6015625 90.8046875 C-44.67338457 90.19240185 -50.69438834 88.25307021 -56.5625 82.515625 C-62.39926598 75.6702013 -63.10810224 68.15559402 -62.703125 59.4140625 C-61.88959892 52.31354982 -59.22061742 47.08296742 -54.0703125 42.15234375 C-47.11965226 36.77167914 -38.61652681 34.38885925 -29.9609375 34.4296875 C-28.75566406 34.43291016 -27.55039062 34.43613281 -26.30859375 34.43945312 C-25.05433594 34.44783203 -23.80007813 34.45621094 -22.5078125 34.46484375 C-20.60322266 34.47161133 -20.60322266 34.47161133 -18.66015625 34.47851562 C-15.52599414 34.49029819 -12.39192709 34.50674959 -9.2578125 34.52734375 C-9.34553705 32.63067849 -9.45372551 30.73495382 -9.5703125 28.83984375 C-9.62832031 27.78410156 -9.68632813 26.72835937 -9.74609375 25.640625 C-10.30609321 22.23360538 -11.20131988 20.28226782 -13.2578125 17.52734375 C-21.41568414 12.888554 -28.63190983 14.25004912 -37.28125 16.52734375 C-40.97245312 17.76743299 -44.13361437 19.46569912 -47.41796875 21.5390625 C-49.2578125 22.52734375 -49.2578125 22.52734375 -52.2578125 22.52734375 C-53.42894196 19.90425276 -54.59487214 17.27906233 -55.7578125 14.65234375 C-56.09167969 13.90597656 -56.42554688 13.15960938 -56.76953125 12.390625 C-57.08535156 11.67519531 -57.40117188 10.95976562 -57.7265625 10.22265625 C-58.01982422 9.56281738 -58.31308594 8.90297852 -58.61523438 8.22314453 C-59.2578125 6.52734375 -59.2578125 6.52734375 -59.2578125 4.52734375 C-41.53067666 -5.04426066 -18.41595861 -12.01179307 0 0 Z " fill="#060606" transform="translate(746.2578125,159.47265625)"/>
<path d="M0 0 C8.25 0 16.5 0 25 0 C26.55460937 5.07955078 26.55460937 5.07955078 28.140625 10.26171875 C29.1567153 13.58146862 30.17283854 16.90120841 31.18896484 20.22094727 C31.88919451 22.50869717 32.58939053 24.79645737 33.28955078 27.08422852 C38.63234584 44.54592952 38.63234584 44.54592952 44 62 C46.94939769 55.61300062 48.95927122 49.00586121 51.01171875 42.28515625 C51.57135063 40.46883949 51.57135063 40.46883949 52.14228821 38.61582947 C53.12646543 35.41919782 54.10732236 32.22158674 55.08654785 29.0234375 C56.08939698 25.75108965 57.0966488 22.48009777 58.10351562 19.20898438 C60.07304387 12.80722183 62.03779234 6.40400998 64 0 C71.92 0 79.84 0 88 0 C84.62783236 12.36461466 84.62783236 12.36461466 82.42578125 18.3671875 C82.06453911 19.35922684 82.06453911 19.35922684 81.69599915 20.37130737 C80.90540363 22.5406532 80.10895903 24.70780085 79.3125 26.875 C78.14722267 30.06418898 76.98536819 33.25461856 75.82421875 36.4453125 C75.51915405 37.28263916 75.21408936 38.11996582 74.89978027 38.98266602 C72.50323921 45.57586217 70.15972778 52.18690916 67.83203125 58.8046875 C67.48173355 59.7985849 67.13143585 60.7924823 66.77052307 61.8164978 C64.69198025 67.71333384 64.69198025 67.71333384 62.62490845 73.61419678 C46.16019457 120.75197729 46.16019457 120.75197729 30.625 128.375 C20.67896826 132.01527808 8.59044655 131.18492213 -1 127 C-0.38398318 124.03953084 0.24233702 121.0819142 0.875 118.125 C1.04902344 117.28324219 1.22304687 116.44148438 1.40234375 115.57421875 C1.57636719 114.76855469 1.75039062 113.96289062 1.9296875 113.1328125 C2.08679199 112.38918457 2.24389648 111.64555664 2.40576172 110.87939453 C3 109 3 109 5 107 C6.010625 107.33 7.02125 107.66 8.0625 108 C14.11779163 109.67797238 19.47860816 109.72078984 25.05859375 106.65234375 C29.19361248 103.13300185 31.70496521 98.21039699 33 93 C31.64936124 84.45264914 28.36399035 76.52908497 25.29296875 68.484375 C24.72435486 66.98158247 24.15627492 65.47858782 23.58869934 63.97540283 C22.0983917 60.03285935 20.60072703 56.09315104 19.10150146 52.1539917 C17.59105096 48.1812295 16.08790772 44.2057053 14.58398438 40.23046875 C12.36720849 34.37457515 10.14770568 28.51972882 7.92260742 22.66699219 C7.67602984 22.01744442 7.42945227 21.36789665 7.17540264 20.69866562 C5.96735699 17.52119202 4.74861789 14.34850639 3.50894165 11.18322754 C3.05006561 10.00804565 2.59118958 8.83286377 2.1184082 7.62207031 C1.50495293 6.06422821 1.50495293 6.06422821 0.87910461 4.47491455 C0 2 0 2 0 0 Z " fill="#060606" transform="translate(1213,156)"/>
<path d="M0 0 C3.3 0 6.6 0 10 0 C10 43.23 10 86.46 10 131 C54.88 131 99.76 131 146 131 C146 134.96 146 138.92 146 143 C121.25 143.33 96.5 143.66 71 144 C73.97 147.3 76.94 150.6 80 154 C84.21741451 158.75417635 88.35146886 163.57047434 92.4375 168.4375 C92.88730225 168.97036621 93.33710449 169.50323242 93.80053711 170.05224609 C97 173.88315741 97 173.88315741 97 175 C84.49545667 176.82252453 84.49545667 176.82252453 78.87109375 172.71484375 C76.43877057 170.20427682 74.30599331 167.47500334 72.23339844 164.66357422 C70.33973472 162.10945218 68.28469466 159.69231867 66.25 157.25 C65.59515625 156.43015625 64.9403125 155.6103125 64.265625 154.765625 C63.51796875 153.85296875 62.7703125 152.9403125 62 152 C61.5640171 151.34497498 61.12803419 150.68994995 60.67883968 150.01507568 C58.26998978 146.71963309 56.38151979 144.38977854 52.36616707 143.25689697 C49.13079286 142.97547596 45.97802349 142.94488378 42.73071289 143 C41.51049438 142.98907822 40.29027588 142.97815643 39.03308105 142.96690369 C35.70376381 142.9448405 32.37813011 142.95792051 29.04910588 142.9869194 C25.56432125 143.00887181 22.07984014 142.98550532 18.59507751 142.96704102 C12.00414905 142.93895553 5.41394971 142.95135419 -1.17695767 142.97846508 C-8.68373046 143.00735968 -16.19019181 142.9908691 -23.69696796 142.97065353 C-39.13153478 142.93010086 -54.56545246 142.94786862 -70 143 C-70 139.04 -70 135.08 -70 131 C-46.9 131 -23.8 131 0 131 C0 87.77 0 44.54 0 0 Z " fill="#F8F8F8" transform="translate(277,93)"/>
<path d="M0 0 C0 7.92 0 15.84 0 24 C7.92 24 15.84 24 24 24 C24 30.27 24 36.54 24 43 C16.08 43 8.16 43 0 43 C0.09713999 49.28086717 0.20000028 55.56110607 0.31738281 61.84155273 C0.35556906 63.97626097 0.39043968 66.11103129 0.421875 68.24584961 C0.46775077 71.32167686 0.52570794 74.3970806 0.5859375 77.47265625 C0.60326431 78.89494286 0.60326431 78.89494286 0.62094116 80.34596252 C0.73649759 85.5824607 1.18375724 90.06755784 3 95 C6.22536782 97.74753555 9.93477891 97.27101474 14 97 C16.71472434 96.44849733 19.32919304 95.7497002 22 95 C22.69951063 97.413762 23.38483919 99.83010234 24.0625 102.25 C24.26166016 102.93191406 24.46082031 103.61382812 24.66601562 104.31640625 C26.55772738 111.15311892 26.55772738 111.15311892 25 114 C17.13778218 119.12546997 7.00225531 118.93675914 -2 118 C-5.35669282 117.09751469 -8.07672817 115.86203952 -11 114 C-11.9075 113.46375 -12.815 112.9275 -13.75 112.375 C-21.92566816 103.74512805 -22.1510787 93.48403258 -22.09765625 82.2578125 C-22.0962413 81.13430389 -22.09482635 80.01079529 -22.09336853 78.85324097 C-22.08778664 75.27713317 -22.07523741 71.70108877 -22.0625 68.125 C-22.05748266 65.69531341 -22.05292016 63.26562583 -22.04882812 60.8359375 C-22.03782313 54.8906007 -22.02057092 48.94531109 -22 43 C-26.62 43 -31.24 43 -36 43 C-36 36.73 -36 30.46 -36 24 C-31.38 24 -26.76 24 -22 24 C-22 17.07 -22 10.14 -22 3 C-4.4 0 -4.4 0 0 0 Z " fill="#060606" transform="translate(1014,132)"/>
<path d="M0 0 C1.05531606 5.15711057 1.12475341 10.20342513 1.0625 15.4375 C1.05798828 16.16904297 1.05347656 16.90058594 1.04882812 17.65429688 C1.03718148 19.43623419 1.01925191 21.21812863 1 23 C0.23816406 22.96519531 -0.52367187 22.93039063 -1.30859375 22.89453125 C-8.67838603 22.70131572 -15.84537688 22.5560361 -21.78125 27.4765625 C-28.85701772 35.07260726 -29.45494835 43.44210408 -29.51171875 53.375 C-29.52966995 54.5400708 -29.54762115 55.7051416 -29.56611633 56.90551758 C-29.62002508 60.60364227 -29.65405354 64.30163931 -29.6875 68 C-29.72069012 70.51694477 -29.75518134 73.03387274 -29.79101562 75.55078125 C-29.87574081 81.70042846 -29.94264515 87.85003908 -30 94 C-37.26 94 -44.52 94 -52 94 C-52 62.98 -52 31.96 -52 0 C-45.07 0 -38.14 0 -31 0 C-30.505 6.93 -30.505 6.93 -30 14 C-29.154375 12.783125 -28.30875 11.56625 -27.4375 10.3125 C-21.48280882 2.39626349 -10.12504692 -5.06252346 0 0 Z " fill="#070707" transform="translate(1203,155)"/>
<path d="M0 0 C15.49018868 -0.25507536 30.98006946 -0.45115902 46.47186184 -0.56993389 C53.66580817 -0.62656037 60.85842258 -0.70369809 68.05151367 -0.82983398 C74.32410141 -0.93977539 80.59572444 -1.01050893 86.86924893 -1.03497344 C90.18917796 -1.04926836 93.50571814 -1.08847385 96.82491875 -1.16303062 C118.69497102 -1.63466141 118.69497102 -1.63466141 123.53640747 2.36166382 C125.84428813 5.15469823 127.39297382 7.76872432 129 11 C130.26963299 12.55679875 131.57605909 14.08531723 132.9375 15.5625 C133.48277344 16.18253906 134.02804687 16.80257813 134.58984375 17.44140625 C135.69210248 18.65969222 136.83827821 19.83827821 138 21 C92.46 21 46.92 21 0 21 C0 14.07 0 7.14 0 0 Z " fill="#7FF3A9" transform="translate(207,247)"/>
<path d="M0 0 C5.61322121 5.53765861 8.28251475 11.55148573 8.4375 19.4375 C8.16701552 35.63275835 -0.98489764 49.78017885 -9.8125 62.8125 C-10.29283691 63.52519043 -10.77317383 64.23788086 -11.26806641 64.97216797 C-12.45746302 66.68727873 -13.72242005 68.34952773 -15 70 C-15.66 70 -16.32 70 -17 70 C-19.48336032 67.00516871 -21.54368672 63.68094642 -23.6875 60.4375 C-24.31946289 59.48472168 -24.95142578 58.53194336 -25.60253906 57.55029297 C-34.59071643 43.75745039 -41.77333329 29.94099248 -40 13 C-37.77926028 5.04414604 -32.93274312 0.23119376 -26 -4 C-16.3902291 -8.51070879 -8.43310681 -5.60233079 0 0 Z " fill="#F9857F" transform="translate(374,143)"/>
<path d="M0 0 C-1.00528369 2.01507538 -2.01422008 4.02795722 -3.03515625 6.03515625 C-3.37417969 6.70417969 -3.71320313 7.37320313 -4.0625 8.0625 C-4.57490234 9.06990234 -4.57490234 9.06990234 -5.09765625 10.09765625 C-6.61441485 13.29532481 -7.12476905 15.84360252 -7.12304783 19.33595562 C-7.12503888 20.22671124 -7.12702993 21.11746686 -7.12908131 22.03521508 C-7.12616847 23.01477742 -7.12325563 23.99433977 -7.12025452 25.00358582 C-7.12153615 26.56326418 -7.12153615 26.56326418 -7.12284368 28.15445119 C-7.12449709 31.6553122 -7.11897934 35.15612579 -7.11352539 38.65698242 C-7.11324346 41.15985615 -7.11340136 43.66272996 -7.1139679 46.16560364 C-7.11419597 51.56272687 -7.11135073 56.95983522 -7.10573006 62.35695457 C-7.09760875 70.1603161 -7.09499919 77.96367178 -7.09374207 85.76703707 C-7.09155254 98.42697008 -7.08489514 111.08689666 -7.07543945 123.74682617 C-7.06626277 136.04597949 -7.05918319 148.34513106 -7.05493164 160.64428711 C-7.05466892 161.40219582 -7.05440619 162.16010452 -7.05413551 162.94098016 C-7.05283049 166.74312234 -7.05156678 170.54526454 -7.05032361 174.34740674 C-7.03995409 205.89827584 -7.02226422 237.44913695 -7 269 C-7.55429688 269.20496094 -8.10859375 269.40992188 -8.6796875 269.62109375 C-9.40414062 269.89050781 -10.12859375 270.15992188 -10.875 270.4375 C-11.95394531 270.83775391 -11.95394531 270.83775391 -13.0546875 271.24609375 C-15.03648845 271.97916854 -15.03648845 271.97916854 -17 273 C-17 202.71 -17 132.42 -17 60 C-18.65 60 -20.3 60 -22 60 C-22 55.71 -22 51.42 -22 47 C-20.35 47 -18.7 47 -17 47 C-17.02618408 46.08299316 -17.05236816 45.16598633 -17.0793457 44.22119141 C-17.16527579 40.77311066 -17.22758531 37.32619005 -17.2746582 33.87744141 C-17.29958838 32.39353321 -17.33354625 30.90974505 -17.37719727 29.42626953 C-17.63396347 20.46663928 -17.62629941 12.51261897 -12 5 C-8.52885175 1.75519533 -4.79277752 0 0 0 Z " fill="#0178FC" transform="translate(151,46)"/>
<path d="M0 0 C7.19875854 4.95914477 10.97347621 11.4139347 12.8125 19.9375 C13.92614634 31.22169202 12.4090753 40.34377861 6.9375 50.375 C2.85344219 55.29989324 -1.55294162 57.66957881 -7.875 58.3125 C-12.95493217 58.21911889 -16.42010849 56.25215777 -20.1875 52.9375 C-27.33343624 44.75484762 -28.80704986 33.87056542 -28.53125 23.3671875 C-27.61487559 14.22427006 -24.05855591 7.05727873 -17.1875 0.9375 C-12.09526166 -2.27865053 -5.54895281 -1.84965094 0 0 Z " fill="#FCFCFC" transform="translate(1099.1875,174.0625)"/>
<path d="M0 0 C4.78434889 2.73776062 7.56757326 6.03348215 9.70703125 11.12890625 C10.15369141 12.09763672 10.15369141 12.09763672 10.609375 13.0859375 C14.63208027 23.07781832 13.88131176 35.29063919 9.70703125 45.12890625 C6.47556915 50.57803842 2.86176425 55.07732858 -3.29296875 57.12890625 C-8.56046155 57.63332864 -12.92476043 57.80057215 -17.73046875 55.44140625 C-23.6923821 50.06114298 -26.66962023 44.51146336 -27.59790039 36.49584961 C-27.72977172 33.72154713 -27.75166873 30.96860316 -27.73046875 28.19140625 C-27.75044922 27.26650391 -27.77042969 26.34160156 -27.79101562 25.38867188 C-27.78559794 17.65763649 -26.25818483 10.73155842 -21.2578125 4.65625 C-20.58878906 4.13160156 -19.91976562 3.60695312 -19.23046875 3.06640625 C-18.55886719 2.51855469 -17.88726563 1.97070312 -17.1953125 1.40625 C-12.25335861 -1.91206401 -5.48467194 -2.08361472 0 0 Z " fill="#FCFCFC" transform="translate(829.29296875,173.87109375)"/>
<path d="M0 0 C19.8 0 39.6 0 60 0 C60 39.6 60 79.2 60 120 C40.2 120 20.4 120 0 120 C0 80.4 0 40.8 0 0 Z M10 1 C10 39.94 10 78.88 10 119 C26.17 119 42.34 119 59 119 C59 80.06 59 41.12 59 1 C42.83 1 26.66 1 10 1 Z " fill="#0175FC" transform="translate(207,93)"/>
<path d="M0 0 C17.16 0 34.32 0 52 0 C52 6.93 52 13.86 52 21 C47.19111714 21.25458792 42.4059969 21.47249199 37.59570312 21.60424805 C35.96566211 21.65917334 34.33615326 21.73395431 32.70800781 21.82983398 C18.45190569 22.64759199 18.45190569 22.64759199 13.74560547 18.62768555 C11.23338347 15.86744163 9.09559742 13.08328557 7 10 C5.97242928 8.80028166 4.9337774 7.60976964 3.875 6.4375 C2 4 2 4 2 2 C1.34 2 0.68 2 0 2 C0 1.34 0 0.68 0 0 Z " fill="#4BAAFC" transform="translate(371,247)"/>
<path d="M0 0 C3.78423918 2.15669563 6.42275908 4.92486623 8 9 C9.3192623 20.87336066 9.3192623 20.87336066 6.1875 25.625 C5.465625 26.40875 4.74375 27.1925 4 28 C3.484375 28.598125 2.96875 29.19625 2.4375 29.8125 C-0.96281505 32.62145591 -4.81933452 32.35429368 -9 32 C-13.76987408 29.75535337 -16.21980419 26.99734324 -18.30078125 22.2734375 C-19.8320537 17.29466339 -20.05458513 12.55434349 -18.046875 7.69140625 C-13.63572816 0.08357389 -8.59265924 -2.496107 0 0 Z " fill="#0A0504" transform="translate(364,149)"/>
<path d="M0 0 C19.8 0 39.6 0 60 0 C60 39.6 60 79.2 60 120 C40.2 120 20.4 120 0 120 C0 80.4 0 40.8 0 0 Z M2 2 C2 40.28 2 78.56 2 118 C3.98 118 5.96 118 8 118 C8.495 117.505 8.495 117.505 9 117 C9.33 117.66 9.66 118.32 10 119 C26.17 119 42.34 119 59 119 C59 80.06 59 41.12 59 1 C30.42662854 0.3214887 30.42662854 0.3214887 2 2 Z " fill="#3084D0" transform="translate(207,93)"/>
<path d="M0 0 C0.97001953 0.01353516 1.94003906 0.02707031 2.93945312 0.04101562 C5.31439129 0.07611323 7.68814378 0.12527725 10.0625 0.1875 C10.09300819 1.78503687 10.11475586 3.38274263 10.1328125 4.98046875 C10.14586426 5.87016357 10.15891602 6.7598584 10.17236328 7.67651367 C9.94906135 12.78020333 7.8043782 15.46210798 4.25 18.9375 C-1.02741618 22.66273495 -5.49419661 23.76279495 -11.9375 23.1875 C-15.45482742 21.90232267 -17.4145624 20.81502512 -19.8125 17.9375 C-21.62944295 13.49608391 -21.60178947 9.90683746 -19.875 5.4375 C-14.61291871 -0.67330407 -7.43969165 -0.19832397 0 0 Z " fill="#F9F9F9" transform="translate(726.9375,208.8125)"/>
<path d="M0 0 C0.33 0 0.66 0 1 0 C1.33 83.49 1.66 166.98 2 253 C-0.64 253.99 -3.28 254.98 -6 256 C-6.66 256.33 -7.32 256.66 -8 257 C-8 186.71 -8 116.42 -8 44 C-7.67 44 -7.34 44 -7 44 C-7 112.31 -7 180.62 -7 251 C-5.02 251 -3.04 251 -1 251 C-0.67 168.17 -0.34 85.34 0 0 Z " fill="#137CE1" transform="translate(142,62)"/>
<path d="M0 0 C-0.40992188 0.50789063 -0.81984375 1.01578125 -1.2421875 1.5390625 C-6.12964042 7.78284207 -8.83047629 12.83364982 -8 21 C-6.21823787 26.68237653 -4.15068947 30.70928173 1 34 C-5.59099231 34.54924936 -10.53162332 33.89577162 -16 30 C-20.28413761 25.92847468 -22.1384488 22.14941971 -22.3125 16.25 C-22.23494978 10.93005476 -21.28139791 8.2069204 -18 4 C-12.2283054 -0.59379775 -7.19680113 -0.46850785 0 0 Z " fill="#77FDF6" transform="translate(157,326)"/>
<path d="M0 0 C3.63 0 7.26 0 11 0 C11.27768648 11.52398894 11.27768648 11.52398894 9 16 C7.67479497 16.68268138 6.34187818 17.3507041 5 18 C4.34786708 20.02463255 4.34786708 20.02463255 4 22 C1.39820337 23.30089831 -0.5969188 23.16840078 -3.5 23.1875 C-4.4796875 23.20167969 -5.459375 23.21585938 -6.46875 23.23046875 C-9 23 -9 23 -11 21 C-11.30078125 18.25 -11.30078125 18.25 -11.3125 15 C-11.32925781 13.9275 -11.34601563 12.855 -11.36328125 11.75 C-11.24339844 10.8425 -11.12351562 9.935 -11 9 C-7.91111478 6.94074319 -7.29064073 6.7609626 -3.8125 6.875 C-1.9253125 6.936875 -1.9253125 6.936875 0 7 C0 4.69 0 2.38 0 0 Z " fill="#FCF177" transform="translate(450,48)"/>
<path d="M0 0 C5.12353544 4.53161184 8.41201182 10.0356857 12 15.8125 C12.60328125 16.77220703 13.2065625 17.73191406 13.828125 18.72070312 C15.0093309 20.60164513 16.18701139 22.48480651 17.36083984 24.37036133 C18.40199685 26.04064762 19.44858296 27.70757146 20.50244141 29.36987305 C20.94765137 30.07281494 21.39286133 30.77575684 21.8515625 31.5 C22.23650879 32.10457031 22.62145508 32.70914063 23.01806641 33.33203125 C25.07361386 36.82370211 26.14649231 39.7108677 25.6875 43.75 C25 46 25 46 24 48 C23.34 48 22.68 48 22 48 C19.51663968 45.00516871 17.45631328 41.68094642 15.3125 38.4375 C14.68053711 37.48472168 14.04857422 36.53194336 13.39746094 35.55029297 C-1.90272364 12.07133516 -1.90272364 12.07133516 -0.625 2.0625 C-0.41875 1.381875 -0.2125 0.70125 0 0 Z " fill="#EC4E53" transform="translate(335,165)"/>
<path d="M0 0 C4.56605829 3.01628816 7.87212283 6.55416565 9.359375 11.90625 C9.66015625 13.83984375 9.66015625 13.83984375 9.78515625 16.83984375 C7.78515625 13.83984375 7.78515625 13.83984375 7.09765625 11.27734375 C5.92615576 8.43469326 5.92615576 8.43469326 2.22265625 7.65234375 C1.08828125 7.38421875 -0.04609375 7.11609375 -1.21484375 6.83984375 C-1.70984375 5.84984375 -1.70984375 5.84984375 -2.21484375 4.83984375 C-1.22484375 4.83984375 -0.23484375 4.83984375 0.78515625 4.83984375 C-0.88972903 3.10336427 -0.88972903 3.10336427 -3.21484375 1.83984375 C-5.9488251 2.54941612 -5.9488251 2.54941612 -8.21484375 3.83984375 C-8.21484375 4.82984375 -8.21484375 5.81984375 -8.21484375 6.83984375 C-8.87871094 6.92621094 -9.54257812 7.01257813 -10.2265625 7.1015625 C-16.06840646 8.03114059 -19.47283716 8.9284601 -23.21484375 13.83984375 C-25.04848162 16.939879 -25.55742079 19.51248627 -25.83984375 23.08984375 C-25.91460937 23.981875 -25.989375 24.87390625 -26.06640625 25.79296875 C-26.11539062 26.4684375 -26.164375 27.14390625 -26.21484375 27.83984375 C-26.87484375 27.50984375 -27.53484375 27.17984375 -28.21484375 26.83984375 C-28.29638308 25.25737668 -28.35427932 23.67368102 -28.40234375 22.08984375 C-28.43714844 21.208125 -28.47195313 20.32640625 -28.5078125 19.41796875 C-28.1599565 16.35683598 -27.06769641 15.23250387 -25.21484375 12.83984375 C-25.21484375 11.51984375 -25.21484375 10.19984375 -25.21484375 8.83984375 C-24.55484375 8.17984375 -23.89484375 7.51984375 -23.21484375 6.83984375 C-23.54484375 6.17984375 -23.87484375 5.51984375 -24.21484375 4.83984375 C-26.52484375 5.16984375 -28.83484375 5.49984375 -31.21484375 5.83984375 C-31.50359375 6.62359375 -31.79234375 7.40734375 -32.08984375 8.21484375 C-33.21484375 10.83984375 -33.21484375 10.83984375 -35.21484375 12.83984375 C-34.79217075 8.04954971 -32.563642 5.10762269 -29.21484375 1.83984375 C-19.23169949 -5.80681994 -10.75495063 -5.77857651 0 0 Z " fill="#F28983" transform="translate(371.21484375,141.16015625)"/>
<path d="M0 0 C0.66 0 1.32 0 2 0 C2.33 39.27 2.66 78.54 3 119 C1.515 119.495 1.515 119.495 0 120 C0 80.4 0 40.8 0 0 Z " fill="#000319" transform="translate(267,93)"/>
<path d="M0 0 C2.37895681 0.00186844 4.75791401 0.00329033 7.13687134 0.00428772 C13.35425913 0.00807936 19.57162302 0.01788048 25.78900146 0.0289917 C32.15099769 0.03927845 38.51299783 0.04380081 44.875 0.04882812 C57.32553125 0.05950621 69.77604488 0.07654167 82.2265625 0.09765625 C82.7215625 1.08765625 82.7215625 1.08765625 83.2265625 2.09765625 C43.6265625 2.09765625 4.0265625 2.09765625 -36.7734375 2.09765625 C-36.7734375 9.02765625 -36.7734375 15.95765625 -36.7734375 23.09765625 C-29.1834375 23.09765625 -21.5934375 23.09765625 -13.7734375 23.09765625 C-13.7734375 23.42765625 -13.7734375 23.75765625 -13.7734375 24.09765625 C-17.75223978 24.29350978 -21.73148906 24.47794295 -25.7109375 24.66015625 C-27.41540039 24.74426758 -27.41540039 24.74426758 -29.15429688 24.83007812 C-30.23388672 24.87841797 -31.31347656 24.92675781 -32.42578125 24.9765625 C-33.92612915 25.04725952 -33.92612915 25.04725952 -35.45678711 25.11938477 C-37.7734375 25.09765625 -37.7734375 25.09765625 -38.7734375 24.09765625 C-38.86057581 22.38993267 -38.88043757 20.67866976 -38.87109375 18.96875 C-38.86787109 17.93427734 -38.86464844 16.89980469 -38.86132812 15.83398438 C-38.85294922 14.74537109 -38.84457031 13.65675781 -38.8359375 12.53515625 C-38.83142578 11.44267578 -38.82691406 10.35019531 -38.82226562 9.22460938 C-38.81043575 6.51556866 -38.79311471 3.80664803 -38.7734375 1.09765625 C-25.85997191 -0.17106886 -12.96081697 -0.03009362 0 0 Z " fill="#000D00" transform="translate(243.7734375,244.90234375)"/>
<path d="M0 0 C0.33 0 0.66 0 1 0 C1 19.47 1 38.94 1 59 C12.22 58.67 23.44 58.34 35 58 C35.66 56.68 36.32 55.36 37 54 C37.66 53.67 38.32 53.34 39 53 C38.484375 52.21625 37.96875 51.4325 37.4375 50.625 C36.963125 49.75875 36.48875 48.8925 36 48 C36.495 47.01 36.495 47.01 37 46 C38.50571746 48.12114959 40.00468679 50.24653615 41.5 52.375 C41.92925781 52.97828125 42.35851562 53.5815625 42.80078125 54.203125 C46 58.7734375 46 58.7734375 46 61 C30.82 61 15.64 61 0 61 C0 40.87 0 20.74 0 0 Z " fill="#99E6B9" transform="translate(298,152)"/>
<path d="M0 0 C0.5625 1.9375 0.5625 1.9375 1 4 C0.67 4.33 0.34 4.66 0 5 C-0.09983684 6.91451817 -0.12967589 8.83288619 -0.125 10.75 C-0.12757813 11.79671875 -0.13015625 12.8434375 -0.1328125 13.921875 C-0.01155348 16.73223122 0.36215909 19.26639609 1 22 C2.65 22 4.3 22 6 22 C6.66 16.06 7.32 10.12 8 4 C9.32 3.67 10.64 3.34 12 3 C11.67 4.010625 11.34 5.02125 11 6.0625 C9.15096586 12.74850024 9.82417037 17.77383991 12.77734375 23.9765625 C14.40425038 26.66901501 16.36550433 28.31684999 19 30 C12.40900769 30.54924936 7.46837668 29.89577162 2 26 C-2.28413761 21.92847468 -4.1384488 18.14941971 -4.3125 12.25 C-4.28964962 7.05534794 -2.93719694 4.2222206 0 0 Z " fill="#7DF8F4" transform="translate(139,330)"/>
<path d="M0 0 C1.32 0 2.64 0 4 0 C4.99 3.63 5.98 7.26 7 11 C45.61 11 84.22 11 124 11 C124 11.33 124 11.66 124 12 C83.08 12 42.16 12 0 12 C0 8.04 0 4.08 0 0 Z " fill="#A6A8A8" transform="translate(207,224)"/>
<path d="M0 0 C2.64 0 5.28 0 8 0 C8.33 6.93 8.66 13.86 9 21 C6.03 21 3.06 21 0 21 C0 14.07 0 7.14 0 0 Z " fill="#18CDB8" transform="translate(207,247)"/>
<path d="M0 0 C17.16 0 34.32 0 52 0 C52 6.93 52 13.86 52 21 C40.78 21 29.56 21 18 21 C18 20.67 18 20.34 18 20 C28.89 20 39.78 20 51 20 C51 14.06 51 8.12 51 2 C35.49 2.33 19.98 2.66 4 3 C4.99 3.99 5.98 4.98 7 6 C6.67 6.66 6.34 7.32 6 8 C4.62437146 6.71034824 3.29233607 5.37310707 2 4 C2 3.34 2 2.68 2 2 C1.34 2 0.68 2 0 2 C0 1.34 0 0.68 0 0 Z " fill="#74BDE7" transform="translate(371,247)"/>
<path d="M0 0 C0.33 0 0.66 0 1 0 C2 3 3 6 4 9 C4.66 9 5.32 9 6 9 C7.73144032 12.77247594 8.19127446 14.4128008 6.8828125 18.4296875 C6.30273438 19.56664062 5.72265625 20.70359375 5.125 21.875 C4.55007813 23.02742188 3.97515625 24.17984375 3.3828125 25.3671875 C2.92648437 26.23601562 2.47015625 27.10484375 2 28 C-0.26395586 25.73604414 -0.83094518 23.95702102 -2 21 C-2.97236487 19.3170608 -3.96564444 17.64556566 -5 16 C-4.0409375 14.5459375 -4.0409375 14.5459375 -3.0625 13.0625 C-0.61648472 8.8446362 -0.21790511 4.80480758 0 0 Z " fill="#E7585D" transform="translate(372,162)"/>
<path d="M0 0 C15.84 0 31.68 0 48 0 C48 5.94 48 11.88 48 18 C37.77 18 27.54 18 17 18 C17 17.67 17 17.34 17 17 C26.9 16.67 36.8 16.34 47 16 C47 11.05 47 6.1 47 1 C33.8 1.33 20.6 1.66 7 2 C7.17186649 8.64989769 7.17186649 8.64989769 9.9375 10.6875 C10.618125 11.120625 11.29875 11.55375 12 12 C13.66189865 14.65903784 14 15.80366562 14 19 C12.36603572 17.27860959 10.74308726 15.54871208 9.125 13.8125 C8.66480469 13.32974609 8.20460938 12.84699219 7.73046875 12.34960938 C4.97908956 9.37891735 3.31909594 6.81001011 2 3 C1.34 2.01 0.68 1.02 0 0 Z " fill="#4BABEB" transform="translate(374,249)"/>
<path d="M0 0 C3.63 0 7.26 0 11 0 C11 3.96 11 7.92 11 12 C7.37 12 3.74 12 0 12 C0 8.04 0 4.08 0 0 Z " fill="#161509" transform="translate(418,57)"/>
<path d="M0 0 C0.99 0.33 1.98 0.66 3 1 C3 1.99 3 2.98 3 4 C3.99 4.33 4.98 4.66 6 5 C5.01 5.33 4.02 5.66 3 6 C4.258125 6.37125 5.51625 6.7425 6.8125 7.125 C10.21372268 8.38693774 10.87043329 8.79938058 12.9375 12 C13.64354182 13.99352984 14.3312208 15.99366239 15 18 C14.01 18.99 13.02 19.98 12 21 C10.33333333 19.33333333 8.66666667 17.66666667 7 16 C6.195625 15.21625 5.39125 14.4325 4.5625 13.625 C2.18813243 11.19272102 0.07444535 8.68909582 -2 6 C-2.33 6.99 -2.66 7.98 -3 9 C-3.99 8.34 -4.98 7.68 -6 7 C-5.34 7 -4.68 7 -4 7 C-4.33 6.01 -4.66 5.02 -5 4 C-4.360625 3.71125 -3.72125 3.4225 -3.0625 3.125 C-0.84793921 2.17176549 -0.84793921 2.17176549 0 0 Z " fill="#F7837C" transform="translate(367,141)"/>
<path d="M0 0 C3.63 0 7.26 0 11 0 C11 3.63 11 7.26 11 11 C7.37 11 3.74 11 0 11 C0 7.37 0 3.74 0 0 Z " fill="#040302" transform="translate(441,58)"/>
<path d="M0 0 C0.66 0.33 1.32 0.66 2 1 C3.48012824 1.11786691 4.96516466 1.17692938 6.44970703 1.20532227 C7.37051056 1.22526749 8.29131409 1.24521271 9.24002075 1.26576233 C10.23589203 1.28247482 11.23176331 1.29918732 12.2578125 1.31640625 C13.78509476 1.3475779 13.78509476 1.3475779 15.3432312 1.37937927 C18.60375055 1.44489466 21.86435206 1.50376902 25.125 1.5625 C27.33203983 1.60568332 29.53907128 1.64929755 31.74609375 1.69335938 C37.16397501 1.80057805 42.58193846 1.90234074 48 2 C48.495 2.99 48.495 2.99 49 4 C32.17 4 15.34 4 -2 4 C-1.34 2.68 -0.68 1.36 0 0 Z " fill="#8DDCAF" transform="translate(374,209)"/>
<path d="M0 0 C5.96260189 4.82082706 10.96679794 10.22494276 16 16 C15.67 16.99 15.34 17.98 15 19 C11.37 19 7.74 19 4 19 C4.66 18.01 5.32 17.02 6 16 C5.65080342 12.59533337 4.63387097 9.97941177 3 7 C1.78860595 4.64847037 0.84131716 2.52395149 0 0 Z " fill="#79F2AA" transform="translate(326,248)"/>
<path d="M0 0 C1.125 3.75 1.125 3.75 0 6 C-0.15626576 8.47832659 -0.25813198 10.93311331 -0.31640625 13.4140625 C-0.33718735 14.14370209 -0.35796844 14.87334167 -0.37937927 15.62509155 C-0.44481917 17.95829763 -0.50373368 20.29161721 -0.5625 22.625 C-0.60569053 24.20574095 -0.64930499 25.78647039 -0.69335938 27.3671875 C-0.80049481 31.24467504 -0.90177782 35.12227685 -1 39 C-2.32 39 -3.64 39 -5 39 C-5 42.3 -5 45.6 -5 49 C-4.01 49.33 -3.02 49.66 -2 50 C-3.65 50 -5.3 50 -7 50 C-7 45.71 -7 41.42 -7 37 C-5.35 37 -3.7 37 -2 37 C-2.01047363 36.05680908 -2.02094727 35.11361816 -2.03173828 34.1418457 C-2.06590641 30.62879982 -2.0909408 27.1159316 -2.10986328 23.6027832 C-2.11989545 22.08485114 -2.13352438 20.56693827 -2.15087891 19.04907227 C-2.17525035 16.8620936 -2.18651095 14.67537136 -2.1953125 12.48828125 C-2.20578613 11.17384033 -2.21625977 9.85939941 -2.22705078 8.50512695 C-2.01205976 5.18617411 -1.44225823 2.96685993 0 0 Z " fill="#2487DE" transform="translate(136,56)"/>
<path d="M0 0 C2.64 0 5.28 0 8 0 C8 0.33 8 0.66 8 1 C6.02 1 4.04 1 2 1 C2 7.93 2 14.86 2 22 C9.59 22 17.18 22 25 22 C25 22.33 25 22.66 25 23 C21.02119772 23.19585353 17.04194844 23.3802867 13.0625 23.5625 C11.35803711 23.64661133 11.35803711 23.64661133 9.61914062 23.73242188 C8.53955078 23.78076172 7.45996094 23.82910156 6.34765625 23.87890625 C4.84730835 23.94960327 4.84730835 23.94960327 3.31665039 24.02172852 C1 24 1 24 0 23 C-0.08713831 21.29227642 -0.10700007 19.58101351 -0.09765625 17.87109375 C-0.09443359 16.83662109 -0.09121094 15.80214844 -0.08789062 14.73632812 C-0.07951172 13.64771484 -0.07113281 12.55910156 -0.0625 11.4375 C-0.05798828 10.34501953 -0.05347656 9.25253906 -0.04882812 8.12695312 C-0.03699826 5.41791505 -0.02051543 2.70898401 0 0 Z " fill="#01211A" transform="translate(205,246)"/>
<path d="M0 0 C1.65 0.33 3.3 0.66 5 1 C6.12377697 4.30435084 5.89554742 6.0506862 4.5625 9.25 C4.27503906 9.95640625 3.98757813 10.6628125 3.69140625 11.390625 C3.46324219 11.92171875 3.23507812 12.4528125 3 13 C0.525 12.01 0.525 12.01 -2 11 C-2 10.34 -2 9.68 -2 9 C-2.66 9 -3.32 9 -4 9 C-2.80100302 5.9168649 -1.52299523 2.93720508 0 0 Z " fill="#EE484E" transform="translate(373,170)"/>
<path d="M0 0 C2 1 2 1 3.1875 3.75 C4.19741242 7.78964968 3.84441749 10.31116501 2 14 C1.34 14 0.68 14 0 14 C-1.2890625 12.46875 -1.2890625 12.46875 -2.625 10.5 C-3.07101562 9.8503125 -3.51703125 9.200625 -3.9765625 8.53125 C-4.48316406 7.77328125 -4.48316406 7.77328125 -5 7 C-3.70700306 4.11562221 -2.34058637 2.12780579 0 0 Z " fill="#EF4F57" transform="translate(357,199)"/>
<path d="M0 0 C-3.5 7 -3.5 7 -7 14 C-9.046875 10.28125 -9.046875 10.28125 -8.625 7.75 C-8.41875 7.1725 -8.2125 6.595 -8 6 C-8.99 6 -9.98 6 -11 6 C-11.66 7.32 -12.32 8.64 -13 10 C-13.33 9.34 -13.66 8.68 -14 8 C-9.99534768 3.641996 -6.17328196 0 0 0 Z " fill="#0475F2" transform="translate(151,46)"/>
<path d="M0 0 C2.31 0 4.62 0 7 0 C8 3 8 3 6.6875 5.6875 C6.130625 6.450625 5.57375 7.21375 5 8 C4.34 8 3.68 8 3 8 C2.67 11.3 2.34 14.6 2 18 C-0.45391569 14.31912647 -0.22802759 11.55644412 -0.125 7.3125 C-0.11597656 6.61060547 -0.10695312 5.90871094 -0.09765625 5.18554688 C-0.07413704 3.45688475 -0.03826713 1.72839855 0 0 Z " fill="#72F9AF" transform="translate(215,249)"/>
<path d="M0 0 C1.32 0 2.64 0 4 0 C4.99 3.63 5.98 7.26 7 11 C6.67 11.33 6.34 11.66 6 12 C4.02 12 2.04 12 0 12 C0 8.04 0 4.08 0 0 Z " fill="#27D3BB" transform="translate(207,224)"/>
<path d="M0 0 C0.33 0 0.66 0 1 0 C1.33 5.94 1.66 11.88 2 18 C1.34 18 0.68 18 0 18 C-0.33 19.98 -0.66 21.96 -1 24 C-1.66 24 -2.32 24 -3 24 C-2.67 25.65 -2.34 27.3 -2 29 C-4.97 31.475 -4.97 31.475 -8 34 C-7.5875 32.80375 -7.175 31.6075 -6.75 30.375 C-3.42559857 20.30681282 -0.43496438 10.65662739 0 0 Z " fill="#91EFB7" transform="translate(393,158)"/>
<path d="M0 0 C4.29 0 8.58 0 13 0 C13 0.33 13 0.66 13 1 C12.00419922 1.12955078 12.00419922 1.12955078 10.98828125 1.26171875 C5.14643729 2.19129684 1.74200659 3.08861635 -2 8 C-3.83363787 11.10003525 -4.34257704 13.67264252 -4.625 17.25 C-4.73714844 18.58804688 -4.73714844 18.58804688 -4.8515625 19.953125 C-4.90054687 20.62859375 -4.94953125 21.3040625 -5 22 C-5.66 21.67 -6.32 21.34 -7 21 C-7.08153933 19.41753293 -7.13943557 17.83383727 -7.1875 16.25 C-7.22230469 15.36828125 -7.25710938 14.4865625 -7.29296875 13.578125 C-6.94511275 10.51699223 -5.85285266 9.39266012 -4 7 C-4 5.68 -4 4.36 -4 3 C-2.68 3 -1.36 3 0 3 C0 2.01 0 1.02 0 0 Z " fill="#F19995" transform="translate(350,147)"/>
<path d="M0 0 C-1.30078125 1.51953125 -1.30078125 1.51953125 -3 3 C-6.1875 2.6875 -6.1875 2.6875 -9 2 C-9 2.99 -9 3.98 -9 5 C-12.465 6.485 -12.465 6.485 -16 8 C-16.33 6.68 -16.66 5.36 -17 4 C-11.59696035 -0.67289916 -6.95230941 -0.44534366 0 0 Z " fill="#8BF7F3" transform="translate(157,326)"/>
<path d="M0 0 C0.5625 1.9375 0.5625 1.9375 1 4 C0.67 4.33 0.34 4.66 0 5 C-0.07319621 7.69654854 -0.09242537 10.36691458 -0.0625 13.0625 C-0.05798828 13.82111328 -0.05347656 14.57972656 -0.04882812 15.36132812 C-0.0370068 17.24091871 -0.01907078 19.12046899 0 21 C-0.99 20.67 -1.98 20.34 -3 20 C-4.62932575 15.11202276 -5.0698293 9.64420693 -3.10546875 4.7890625 C-2 2.875 -2 2.875 0 0 Z " fill="#25DCD0" transform="translate(139,330)"/>
<path d="M0 0 C1.32 0.66 2.64 1.32 4 2 C4 4.31 4 6.62 4 9 C2.02 9.99 2.02 9.99 0 11 C-2 9 -2 9 -2.25 5.5 C-2 2 -2 2 0 0 Z " fill="#A2EFC3" transform="translate(358,159)"/>
<path d="M0 0 C0.7425 0.350625 1.485 0.70125 2.25 1.0625 C5.1322726 2.04509293 6.21176345 2.0326802 9 1 C9.66 2.65 10.32 4.3 11 6 C9 6 7 6 5 6 C5.66 8.31 6.32 10.62 7 13 C7.66 13 8.32 13 9 13 C9.33 14.65 9.66 16.3 10 18 C6.62286814 14.96058132 4.73201206 11.9491359 2.75 7.875 C1.96882813 6.29332031 1.96882813 6.29332031 1.171875 4.6796875 C0 2 0 2 0 0 Z " fill="#E6575E" transform="translate(338,180)"/>
<path d="M0 0 C3.25694723 3.02430814 5.72350913 6.17874747 8 10 C8 10.99 8 11.98 8 13 C4.625 13.125 4.625 13.125 1 13 C0.34 12.34 -0.32 11.68 -1 11 C1 8 1 8 3 7 C2.505 6.21625 2.01 5.4325 1.5 4.625 C0 2 0 2 0 0 Z " fill="#89EDB1" transform="translate(334,198)"/>
<path d="M0 0 C0.66 0 1.32 0 2 0 C2.61875 0.94875 3.2375 1.8975 3.875 2.875 C6.26549112 6.45493072 6.26549112 6.45493072 10 8 C12.66733899 8.43600733 15.30717068 8.73071707 18 9 C18 9.33 18 9.66 18 10 C13.05 10 8.1 10 3 10 C2.01 6.7 1.02 3.4 0 0 Z " fill="#F19391" transform="translate(345,172)"/>
<path d="M0 0 C0.66 0 1.32 0 2 0 C2 5.94 2 11.88 2 18 C0.35 18 -1.3 18 -3 18 C-2.01 16.515 -2.01 16.515 -1 15 C-0.70008931 12.41114829 -0.49134775 9.90850918 -0.375 7.3125 C-0.33632812 6.61060547 -0.29765625 5.90871094 -0.2578125 5.18554688 C-0.1637666 3.45745345 -0.0808032 1.72876325 0 0 Z " fill="#0CC89F" transform="translate(213,249)"/>
<path d="M0 0 C0.33 0 0.66 0 1 0 C1 6.6 1 13.2 1 20 C-2.3 20 -5.6 20 -9 20 C-8.67 19.34 -8.34 18.68 -8 18 C-4.535 17.505 -4.535 17.505 -1 17 C-0.67 11.39 -0.34 5.78 0 0 Z " fill="#1778D0" transform="translate(216,193)"/>
<path d="M0 0 C4.34344694 0.52836206 6.70557129 1.98974332 10.0625 4.75 C10.89910156 5.42546875 11.73570312 6.1009375 12.59765625 6.796875 C15.06451793 9.05916766 17.1303335 11.22016012 19 14 C18.67 14.99 18.34 15.98 18 17 C17.45472656 16.34773438 16.90945313 15.69546875 16.34765625 15.0234375 C11.84596211 9.80608942 7.56393767 5.62576068 1.65234375 2.05859375 C1.10707031 1.70925781 0.56179688 1.35992187 0 1 C0 0.67 0 0.34 0 0 Z " fill="#95E6B7" transform="translate(370,128)"/>
<path d="M0 0 C1.65322266 0.01740234 1.65322266 0.01740234 3.33984375 0.03515625 C4.99693359 0.04869141 4.99693359 0.04869141 6.6875 0.0625 C7.54214844 0.07410156 8.39679688 0.08570313 9.27734375 0.09765625 C9.27734375 0.75765625 9.27734375 1.41765625 9.27734375 2.09765625 C5.64734375 2.09765625 2.01734375 2.09765625 -1.72265625 2.09765625 C-1.72265625 5.39765625 -1.72265625 8.69765625 -1.72265625 12.09765625 C-2.05265625 12.09765625 -2.38265625 12.09765625 -2.72265625 12.09765625 C-2.91667258 10.2858422 -3.1027 8.47317093 -3.28515625 6.66015625 C-3.38957031 5.65082031 -3.49398438 4.64148437 -3.6015625 3.6015625 C-3.64152344 2.77527344 -3.68148438 1.94898438 -3.72265625 1.09765625 C-2.72265625 0.09765625 -2.72265625 0.09765625 0 0 Z " fill="#DCDA7C" transform="translate(442.72265625,55.90234375)"/>
<path d="M0 0 C1.98 0 3.96 0 6 0 C6 0.66 6 1.32 6 2 C4.68 2 3.36 2 2 2 C2 5.3 2 8.6 2 12 C2.99 12.33 3.98 12.66 5 13 C3.35 13 1.7 13 0 13 C0 8.71 0 4.42 0 0 Z " fill="#2F81D4" transform="translate(129,93)"/>
<path d="M0 0 C4.52615993 3.67832017 8.39424999 7.41086363 12 12 C11.67 12.66 11.34 13.32 11 14 C10.608125 13.54625 10.21625 13.0925 9.8125 12.625 C8.04152575 10.82044977 8.04152575 10.82044977 5.375 10.125 C4.59125 9.75375 3.8075 9.3825 3 9 C2.3125 6.625 2.3125 6.625 2 4 C1.36467318 2.65145187 0.70223748 1.31494667 0 0 Z " fill="#94F3BC" transform="translate(326,248)"/>
<path d="M0 0 C1.5625 1.6875 1.5625 1.6875 3 4 C2.74303831 6.69809776 2.20824654 8.58350693 1 11 C0.34 11 -0.32 11 -1 11 C-2.625 8.5 -2.625 8.5 -4 6 C-3.01 5.67 -2.02 5.34 -1 5 C-0.67 3.35 -0.34 1.7 0 0 Z " fill="#DF565D" transform="translate(358,202)"/>
<path d="M0 0 C0.33 0.66 0.66 1.32 1 2 C1.8971875 2.1546875 1.8971875 2.1546875 2.8125 2.3125 C5.96707605 3.30393819 7.11673632 5.37688273 9 8 C4.2482602 7.56802365 2.07999946 6.67230705 -1 3 C-0.67 2.01 -0.34 1.02 0 0 Z " fill="#7DF4E9" transform="translate(139,350)"/>
<path d="M0 0 C1.32 0.33 2.64 0.66 4 1 C4 1.99 4 2.98 4 4 C4.99 4.33 5.98 4.66 7 5 C6.01 5.99 5.02 6.98 4 8 C3.01 7.67 2.02 7.34 1 7 C0.67 4.69 0.34 2.38 0 0 Z " fill="#EE494B" transform="translate(339,176)"/>
<path d="M0 0 C3.234375 0.046875 3.234375 0.046875 6.75 0.75 C7.92046875 0.97171875 9.0909375 1.1934375 10.296875 1.421875 C11.18890625 1.61265625 12.0809375 1.8034375 13 2 C13 2.33 13 2.66 13 3 C4.585 3.495 4.585 3.495 -4 4 C-2.68 2.68 -1.36 1.36 0 0 Z " fill="#99F3C1" transform="translate(351,123)"/>
<path d="M0 0 C0.33 0 0.66 0 1 0 C3 5.625 3 5.625 3 9 C2.34 8.67 1.68 8.34 1 8 C0.731875 8.928125 0.46375 9.85625 0.1875 10.8125 C-0.91148371 13.76240366 -1.62418561 15.05615186 -4 17 C-4 14 -4 14 -2.5625 11.875 C-0.4558687 7.99879841 -0.27481879 4.34971812 0 0 Z " fill="#D7545D" transform="translate(372,162)"/>
<path d="M0 0 C0.66 0.33 1.32 0.66 2 1 C1.01 1.33 0.02 1.66 -1 2 C-1.33 2.66 -1.66 3.32 -2 4 C-2.495 4.474375 -2.99 4.94875 -3.5 5.4375 C-5.25083992 7.0377353 -5.25083992 7.0377353 -6 10 C-6.66 10 -7.32 10 -8 10 C-8.33 8.35 -8.66 6.7 -9 5 C-7.54735962 4.1361871 -6.0876837 3.28419546 -4.625 2.4375 C-3.40683594 1.72400391 -3.40683594 1.72400391 -2.1640625 0.99609375 C-1.44992187 0.66738281 -0.73578125 0.33867187 0 0 Z " fill="#0F0F0F" transform="translate(696,159)"/>
<path d="M0 0 C-0.33 0.99 -0.66 1.98 -1 3 C-4.375 4.125 -4.375 4.125 -8 5 C-11.11332248 5.66868314 -11.11332248 5.66868314 -12.1875 8.0625 C-12.455625 8.701875 -12.72375 9.34125 -13 10 C-13.33 9.34 -13.66 8.68 -14 8 C-9.99534768 3.641996 -6.17328196 0 0 0 Z " fill="#2180D2" transform="translate(151,46)"/>
<path d="M0 0 C4.0013028 0.61558505 6.77824353 2.63737859 10 5 C10.33 5.66 10.66 6.32 11 7 C10.67 7.66 10.34 8.32 10 9 C9.34 9 8.68 9 8 9 C8 7.68 8 6.36 8 5 C7.05125 4.9175 6.1025 4.835 5.125 4.75 C2 4 2 4 0.625 1.9375 C0.41875 1.298125 0.2125 0.65875 0 0 Z " fill="#7FE7A8" transform="translate(331,258)"/>
<path d="M0 0 C3.92857656 1.96428828 6.60143861 5.40215791 9 9 C8.625 11.6875 8.625 11.6875 8 14 C6.65703598 11.98555397 5.32381027 9.96458448 4 7.9375 C2.15350738 5.02914697 2.15350738 5.02914697 0 3 C0 2.01 0 1.02 0 0 Z " fill="#EE9793" transform="translate(365,147)"/>
<path d="M0 0 C0.66 0.33 1.32 0.66 2 1 C0.1875 3.5 0.1875 3.5 -2 6 C-2.99 6 -3.98 6 -5 6 C-5.28875 6.78375 -5.5775 7.5675 -5.875 8.375 C-7 11 -7 11 -9 13 C-8.56572515 8.07821839 -6.30904303 5.54540325 -3 2 C-2.01 1.34 -1.02 0.68 0 0 Z " fill="#E99492" transform="translate(345,141)"/>
<path d="M0 0 C0.99 0.33 1.98 0.66 3 1 C2.67 2.98 2.34 4.96 2 7 C1.01 7 0.02 7 -1 7 C-1.04254356 5.00045254 -1.04080783 2.99958364 -1 1 C-0.67 0.67 -0.34 0.34 0 0 Z " fill="#7AEFAD" transform="translate(358,161)"/>
<path d="M0 0 C0.6875 1.75 0.6875 1.75 1 4 C0.319375 4.8353125 0.319375 4.8353125 -0.375 5.6875 C-2.81907611 9.16560831 -2.74209209 12.83789999 -3 17 C-3.33 17 -3.66 17 -4 17 C-4.50604984 10.01370081 -4.0333905 5.79799884 0 0 Z " fill="#41D7CB" transform="translate(139,330)"/>
<path d="M0 0 C0.33 0.66 0.66 1.32 1 2 C0.02616054 3.68208635 -0.97695052 5.34738161 -2 7 C-2.69579454 9.19130534 -2.69579454 9.19130534 -3 11 C-4.32 11.33 -5.64 11.66 -7 12 C-6.02296079 10.1863523 -5.04330895 8.37411183 -4.0625 6.5625 C-3.51722656 5.55316406 -2.97195313 4.54382813 -2.41015625 3.50390625 C-1 1 -1 1 0 0 Z " fill="#96EAB8" transform="translate(384,193)"/>
<path d="M0 0 C2.43929746 1.92576115 4.80090595 3.80090595 7 6 C4.03 6 1.06 6 -2 6 C-1.34 5.67 -0.68 5.34 0 5 C0 3.35 0 1.7 0 0 Z " fill="#89F3ED" transform="translate(151,354)"/>
<path d="M0 0 C0.66 0.66 1.32 1.32 2 2 C0.35 4.31 -1.3 6.62 -3 9 C-3.33 7.68 -3.66 6.36 -4 5 C-3.34 4.34 -2.68 3.68 -2 3 C-1.34 2.01 -0.68 1.02 0 0 Z " fill="#F4908F" transform="translate(365,199)"/>
<path d="M0 0 C1.98 0.99 1.98 0.99 4 2 C3.67 3.65 3.34 5.3 3 7 C2.34 6.67 1.68 6.34 1 6 C0.375 2.9375 0.375 2.9375 0 0 Z " fill="#51AAED" transform="translate(377,251)"/>
<path d="M0 0 C1.32 0.33 2.64 0.66 4 1 C3.67 3.64 3.34 6.28 3 9 C2.67 7.68 2.34 6.36 2 5 C1.34 5 0.68 5 0 5 C0 3.35 0 1.7 0 0 Z " fill="#87F0B1" transform="translate(392,153)"/>
<path d="M0 0 C0.66 0.66 1.32 1.32 2 2 C-2.75 5 -2.75 5 -5 5 C-5.33 5.66 -5.66 6.32 -6 7 C-5.8125 4.625 -5.8125 4.625 -5 2 C-2.4375 0.6875 -2.4375 0.6875 0 0 Z " fill="#051E1F" transform="translate(144,325)"/>
</svg>
